<svg width="268" height="203" viewBox="0 0 268 203" fill="none" xmlns="http://www.w3.org/2000/svg">
<path opacity="0.2" d="M246.707 130.672C236.531 163.13 221.375 183.945 201.241 193.117C182.977 201.436 160.924 202.494 135.084 196.29C130.387 195.163 127.376 190.664 127.861 185.859L129.243 172.165C129.837 166.278 135.394 162.261 141.279 162.864C167.06 165.501 183.705 156.663 191.217 136.349C193.011 131.498 189.964 126.386 185.028 124.838L172.837 121.017C167.568 119.364 164.635 113.753 166.287 108.483L184.973 48.8796C186.625 43.6097 192.236 40.6768 197.506 42.329L257.979 61.2873C263.249 62.9395 266.182 68.5509 264.53 73.8209L246.707 130.672ZM121.97 91.566C111.794 124.025 96.6384 144.84 76.5036 154.011C58.2398 162.331 36.1874 163.388 10.3465 157.185C5.65026 156.057 2.63841 151.559 3.1234 146.754L4.5056 133.059C5.0997 127.173 10.6567 123.156 16.5421 123.758C42.3225 126.396 58.9683 117.558 66.4797 97.2437C68.2736 92.3922 65.2265 87.2803 60.2909 85.7329L48.1004 81.9112C42.8304 80.259 39.8976 74.6476 41.5498 69.3776L60.2357 9.77411C61.8878 4.50417 67.4993 1.57136 72.7692 3.22351L133.242 22.1819C138.512 23.834 141.445 29.4455 139.792 34.7154L121.97 91.566Z" stroke="#2E8ECC" stroke-width="5"/>
</svg>
