<svg width="189" height="146" viewBox="0 0 189 146" fill="none" xmlns="http://www.w3.org/2000/svg">
<g opacity="0.3">
<path d="M239.703 113.719C227.529 110.787 219.748 103.051 216.59 90.7239C215.819 87.685 215.19 87.3418 213.868 87.3418H213.804C212.675 87.3489 211.939 87.5063 211.211 90.5094C208.189 102.958 200.344 110.773 187.891 113.748C185.048 114.427 184.848 115.199 184.862 116.386C184.876 117.523 185.112 118.445 187.898 118.996C193.957 120.197 199.172 123.179 203.83 128.113C207.846 132.36 210.41 137.429 211.468 143.178C211.904 145.552 213.268 145.559 213.854 145.566C214.576 145.588 215.662 145.581 216.269 143.107L216.419 142.492C216.74 141.133 217.083 139.732 217.619 138.337C221.656 127.948 229.193 121.413 240.039 118.917C242.253 118.41 242.875 117.645 243.089 116.443C242.932 115.113 242.303 114.341 239.703 113.719ZM226.714 119.611C222.985 122.235 219.813 125.395 217.255 129.042C216.883 129.571 215.755 131.18 213.833 131.18H213.804C212.525 131.166 211.411 130.458 210.482 129.078C208.039 125.46 204.995 122.371 201.437 119.89C200.001 118.889 199.279 117.702 199.287 116.365C199.301 114.334 201.008 113.176 201.573 112.797C204.988 110.48 207.967 107.491 210.41 103.923C210.789 103.38 211.918 101.728 213.868 101.707C214.69 101.678 215.94 102 216.998 103.48C219.82 107.413 223.178 110.723 226.978 113.312C227.557 113.705 227.893 114.198 228.093 114.491L228.15 114.577L228.672 115.213L228.693 116.014C228.793 118.159 227.286 119.218 226.714 119.611Z" fill="#6ACBE0"/>
<path d="M54.8414 34.3773C42.6673 31.4457 34.887 23.7091 31.7291 11.3821C30.9575 8.34321 30.3288 8 29.0071 8H28.9428C27.814 8.00715 27.0781 8.16446 26.3493 11.1676C23.3272 23.6161 15.4826 31.4314 3.02989 34.4059C0.186399 35.0851 -0.0136457 35.8574 0.000643217 37.0443C0.0149321 38.1812 0.250699 39.1036 3.03703 39.6542C9.09552 40.8554 14.311 43.8371 18.9691 48.7707C22.9843 53.018 25.5492 58.0875 26.6065 63.8363C27.0424 66.2102 28.4069 66.2173 28.9928 66.2245C29.7144 66.2459 30.8003 66.2388 31.4076 63.7648L31.5576 63.1499C31.8791 61.7913 32.2221 60.3899 32.7579 58.9956C36.7945 48.6063 44.3319 42.0709 55.1772 39.5755C57.3919 39.0678 58.0135 38.3028 58.2278 37.1015C58.0707 35.7716 57.442 34.9993 54.8414 34.3773ZM41.8528 40.2691C38.1234 42.8932 34.9513 46.0536 32.3935 49.7003C32.022 50.2294 30.8932 51.8382 28.9714 51.8382H28.9428C27.6639 51.8239 26.5494 51.116 25.6206 49.736C23.1772 46.118 20.1337 43.0291 16.5758 40.5479C15.1397 39.5469 14.4181 38.36 14.4253 37.0229C14.4396 34.9922 16.1471 33.8339 16.7115 33.4549C20.1265 31.1382 23.1058 28.1494 25.5492 24.5814C25.9278 24.038 27.0566 22.3863 29.0071 22.3649C29.8287 22.3363 31.079 22.658 32.1363 24.1381C34.9584 28.0708 38.3163 31.3813 42.1171 33.9697C42.6958 34.363 43.0316 34.8563 43.2317 35.1495L43.2888 35.2353L43.8104 35.8717L43.8318 36.6725C43.9318 38.8176 42.4243 39.8758 41.8528 40.2691Z" fill="#6ACBE0"/>
<path d="M173.836 118.969C171.393 120.308 168.627 120.854 164.283 120.854H164.026C159.673 121.195 155.395 119.366 150.586 115.098C142.677 108.085 137.344 108.094 129.436 115.116C122.478 121.297 112.782 122.785 105.862 118.738C104.503 117.943 103.552 116.992 103.172 116.04C102.887 115.329 102.954 114.663 103.391 113.97C103.809 113.287 104.265 112.548 105.501 112.548C106.166 112.548 107.05 112.76 108.267 113.305C114.816 116.225 120.662 115.125 126.128 109.942C134.578 101.951 145.567 102.024 154.131 110.136C159.293 115.033 164.986 116.114 171.526 113.462C175.452 111.864 176.098 113.074 176.716 114.238C177.895 116.437 175.1 118.285 173.836 118.969Z" fill="#6ACBE0"/>
<path d="M106.185 96.5966C103.524 98.2422 100.459 98.9376 96.5461 98.8201H96.1509C91.6593 99.2217 87.3412 97.39 82.599 93.09C73.7798 85.0875 68.9412 85.1658 60.1219 93.4426C53.6737 99.4862 43.3315 100.789 36.5749 96.4203C35.717 95.862 33.0279 93.8736 34.3676 91.5424C34.7339 90.8959 35.2447 90.0144 36.5363 90.0144C37.1146 90.0144 37.8568 90.1907 38.811 90.6413C45.7411 93.9422 51.9387 92.7374 57.7701 86.9583C65.8665 78.9362 77.2496 79.0244 85.4617 87.164C91.2256 92.8745 97.2882 94.0793 103.987 90.8372C107.361 89.2014 108.199 90.8078 108.7 91.7677C109.867 94.001 107.332 95.8914 106.185 96.5966Z" fill="#6ACBE0"/>
<path d="M116.159 70.7146C116.091 70.7033 116.012 70.6807 115.944 70.6694C114.01 70.2171 112.156 69.3351 110.279 67.9669C109.827 67.639 109.465 67.3224 109.193 67.0171C111.579 68.7923 113.886 70.0249 116.159 70.7146Z" fill="#6ACBE0"/>
<path d="M125.724 71.3252C124.243 71.5061 122.716 71.5513 121.145 71.4496C121.495 71.4383 121.846 71.4157 122.207 71.393L122.445 71.3704H122.682C123.745 71.4157 124.752 71.4043 125.724 71.3252Z" fill="#6ACBE0"/>
<path d="M193.351 71.6955C190.963 73.1401 188.47 73.9735 182.776 73.8995H182.671H182.566C178.306 74.1124 174.093 72.2326 169.317 68.0006C161.531 61.0924 155.848 61.1017 148.368 68.0562C147.375 68.9822 146.352 69.7879 145.302 70.4916V70.5009C142.56 72.3437 139.608 73.4457 136.427 73.8069C135.606 73.8717 134.756 73.8809 133.858 73.8532H133.657L133.456 73.8624C133.151 73.8809 132.855 73.8995 132.559 73.9087H132.511C131.116 73.9272 129.741 73.7328 128.346 73.3068C126.426 72.7419 124.477 71.7325 122.462 70.2787C121.869 69.8619 121.267 69.3989 120.666 68.8989C110.807 60.7312 107.55 60.759 97.4626 69.0563C91.0241 74.3532 81.6053 75.5478 75.0619 71.89C72.3776 70.3991 71.451 68.7322 72.3107 66.9449C72.5113 66.5375 72.9221 65.667 74.4314 65.667C75.1478 65.667 76.1222 65.8707 77.45 66.4171C84.0126 69.1396 89.7345 68.0654 94.9502 63.1482C103.576 55.0269 114.628 54.9435 123.121 62.9445C125.757 65.4262 128.461 66.9912 131.259 67.6302C136.37 68.4081 141.089 66.6208 145.798 62.2129C153.259 55.2306 164.598 55.3232 172.182 62.4259C176.099 66.093 182.346 70.4824 191.316 66.2319C194.316 64.8058 195.223 66.3615 195.663 67.1024C196.943 69.2878 194.23 71.1677 193.36 71.6955H193.351Z" fill="#6ACBE0"/>
<path d="M136.229 67.2886C135.72 67.7974 135.019 68.3288 134.058 68.8716C131.548 70.3076 128.857 71.1105 125.725 71.3253C129.49 70.8843 132.984 69.5387 136.229 67.2886Z" fill="#6ACBE0"/>
</g>
</svg>
