<svg width="166" height="296" viewBox="0 0 166 296" fill="none" xmlns="http://www.w3.org/2000/svg">
<path d="M164.576 278.758C162.602 265.582 160.62 252.414 158.638 239.246L155.043 215.308C153.86 207.459 152.685 199.602 151.51 191.753C149.598 178.969 147.679 166.185 145.752 153.401L145.69 152.985C143.3 137.154 140.825 120.775 138.31 104.693C137.198 97.5957 132.945 93.9846 125.667 93.9454C121.21 93.9297 116.761 93.9297 112.304 93.9376H106.491C101.329 93.9376 98.4857 93.9376 96.5273 91.9792C94.5768 90.0366 94.5377 87.3419 94.4593 81.9682C94.3183 72.2705 87.7462 65.7531 78.1033 65.7531H78.0876C68.5701 65.761 61.8647 72.4507 61.7864 82.023C61.7237 89.0652 61.7237 96.7654 61.7864 106.259C61.7942 107.466 61.8021 109.706 60.2354 111.265C59.2092 112.299 57.7757 112.769 55.9192 112.769C45.5087 112.675 34.9101 112.706 25.0244 112.753H24.9696C23.1287 112.753 21.7501 112.26 20.7396 111.249C19.7212 110.231 19.2356 108.829 19.2512 106.957C19.2747 103.839 19.2669 100.721 19.2591 97.6036C19.2512 92.8331 19.2356 87.898 19.3452 83.0335C19.4627 78.0593 21.5542 74.2993 25.3926 72.1608C28.8628 70.2338 32.4818 69.9596 35.5995 71.3853C39.2028 73.0303 41.7721 76.759 42.8375 81.882C43.3232 84.1929 44.083 84.3809 45.587 84.2555C46.5505 84.1694 47.4592 84.091 47.4435 81.5765C47.4122 74.832 44.3336 70.0145 38.2941 67.265C31.8708 64.3431 25.9018 65.0481 20.5437 69.3643C16.2667 72.811 14.465 77.5188 14.7079 84.6237L14.747 85.7987C14.8645 89.0417 14.9429 91.0001 13.4937 92.4962C12.0524 93.9767 10.1802 93.9611 7.08601 93.9376H5.44885C-5.40819 93.9532 -15.1529 93.9532 -24.3258 93.9376C-27.1223 93.9532 -27.2789 94.6817 -27.4591 95.6374C-27.5688 96.2562 -27.6236 97.0944 -27.2084 97.5879C-26.7854 98.1049 -25.7828 98.4026 -24.4589 98.4104H-23.1194C-13.0457 98.4888 -2.63518 98.5514 7.58736 98.3713C9.32635 98.3399 11.5354 98.5044 13.1099 100.079C14.6922 101.653 14.8645 103.855 14.8332 105.601C14.6844 115.894 14.7236 126.376 14.7627 136.512L14.7862 141.964C14.7941 145.34 15.6479 145.364 16.9404 145.387C17.4966 145.395 18.2172 145.348 18.5462 145.027C18.7499 144.823 19.2356 144.11 19.2512 141.815L19.2669 139.778C19.3139 134.561 19.3609 129.172 19.2199 123.9C19.1807 122.451 19.3061 120.344 20.8022 118.832C22.2984 117.32 24.3586 117.171 25.7921 117.195C36.6021 117.344 46.1745 117.344 55.0654 117.179C56.5459 117.156 58.6687 117.297 60.1962 118.832C61.7159 120.359 61.8569 122.467 61.8177 124.127C61.7002 128.545 61.7316 133.065 61.7629 137.436C61.7629 139.238 61.7864 141.047 61.7864 142.849C61.7864 144.651 62.3582 144.972 62.7734 145.152C64.1207 145.724 64.9589 145.356 65.4759 145.027C66.1574 144.588 66.2671 143.907 66.2671 141.784C66.2671 138.361 66.2671 134.977 66.2827 131.585C66.2984 122.992 66.3219 114.101 66.2044 105.366C66.1809 103.847 66.3376 101.646 67.8807 100.087C69.4161 98.5514 71.5859 98.3791 73.2544 98.3791C84.3073 98.4809 95.5482 98.4653 106.421 98.4496C110.369 98.4496 114.317 98.4417 118.265 98.4417C131.417 98.4417 132.639 99.4836 134.543 112.33L134.566 112.503C139.501 145.794 144.922 182.188 151.627 227.05C153.515 239.709 155.434 252.375 157.361 265.034L159.868 281.586C160.314 284.547 159.86 286.818 158.474 288.518C157.071 290.234 154.925 291.15 151.894 291.315C151.063 291.362 150.249 291.354 149.473 291.346C149.183 291.346 148.901 291.338 148.611 291.338H-114.543C-114.856 291.338 -115.161 291.346 -115.475 291.346C-116.376 291.362 -117.308 291.37 -118.279 291.299C-121.06 291.088 -123.136 290.14 -124.46 288.487C-125.799 286.803 -126.269 284.5 -125.846 281.633C-125.094 276.533 -124.35 271.426 -123.606 266.319C-122.211 256.746 -120.762 246.845 -119.297 237.116C-115.655 212.965 -111.989 188.815 -108.323 164.665L-104.406 138.862C-103.725 134.366 -105.299 134.123 -106.051 133.997C-106.263 133.966 -106.443 133.95 -106.607 133.95C-107.32 133.95 -107.665 134.201 -107.798 134.303C-108.558 134.851 -109.122 136.128 -109.396 137.898C-110.407 144.51 -111.394 151.129 -112.381 157.748L-116.673 186.434C-119.29 203.91 -121.914 221.394 -124.538 238.87C-125.055 242.341 -125.572 245.803 -126.089 249.273C-127.569 259.182 -129.097 269.436 -130.679 279.51C-131.517 284.821 -130.711 288.933 -128.282 291.746C-125.838 294.581 -121.702 296.038 -116.368 295.999C-84.0551 295.717 -51.1942 295.764 -19.4221 295.803C-7.35086 295.827 4.72818 295.842 16.7994 295.842H99.3708C116.972 295.85 135.177 295.85 153.076 295.819C159.179 295.811 163.636 292.49 164.701 287.163C165.273 284.327 164.96 281.319 164.576 278.758ZM89.9473 87.0834C89.9317 87.7492 89.9082 88.4229 89.9082 89.0965C89.9082 90.8356 89.1875 91.9166 88.5843 92.5119C87.143 93.9454 85.122 93.9297 84.4718 93.9297C83.1715 93.9219 81.8711 93.9219 80.5708 93.9219L77.7038 93.9532C77.2729 93.9924 76.4739 94.0629 75.6201 93.7104C75.4164 93.6712 74.6331 93.8122 74.1161 93.9062C73.4268 94.0237 72.6277 94.1647 71.7818 94.1647C70.7399 94.1647 69.6432 93.9532 68.6249 93.2091C67.4029 92.3161 66.6431 90.8669 66.3689 88.9007C65.0294 79.109 68.5544 72.4898 76.0353 70.7508C81.4481 69.4896 87.0725 72.9833 89.1248 78.8818C90.1197 81.7332 90.0257 84.5767 89.9473 87.0834Z" fill="#6ACBE0"/>
<path d="M9.88256 29.0774C-4.15482 25.8971 -12.9987 17.0689 -16.4062 2.83568C-17.0094 0.282001 -18.0042 0 -19.1557 0H-19.2889C-20.3777 0.0156667 -21.3177 0.235001 -21.8974 2.75734C-25.1404 16.9514 -33.9608 25.7953 -48.1235 29.0539C-50.8025 29.6728 -50.9983 30.6911 -50.967 31.8661C-50.9435 32.9863 -50.7163 33.9498 -48.2253 34.5451C-33.8198 37.9761 -24.9367 46.9375 -21.819 61.1707C-21.4352 62.8862 -20.6675 63.6617 -19.093 63.8576C-17.8632 63.6696 -16.9937 63.0821 -16.5237 61.0532C-13.2102 46.7652 -4.29582 37.8195 9.96873 34.4746C12.7731 33.8166 12.7966 32.6573 12.8122 31.8974C12.8201 31.0906 12.8514 29.7511 9.88256 29.0774ZM-2.93281 32.4301L-3.01898 33.6286L-4.38199 34.7175C-4.77366 35.0308 -5.21233 35.3833 -5.65883 35.7201C-9.66951 38.7595 -12.795 41.9007 -15.1999 45.3238C-15.756 46.1228 -17.0642 47.9872 -19.2184 47.9872H-19.2654C-21.4274 47.9637 -22.6886 46.0758 -23.0959 45.457C-25.6339 41.6656 -28.7751 38.4696 -32.4411 35.9551C-33.0991 35.5008 -35.1123 34.1143 -35.1044 31.8034C-35.0888 29.4926 -33.0364 28.1218 -32.3628 27.6753C-28.7986 25.2861 -25.7279 22.2154 -23.2369 18.5337C-22.7355 17.7974 -21.4117 15.8469 -19.1557 15.8312H-19.1322C-17.6595 15.8312 -16.3435 16.6616 -15.2234 18.2831C-12.6305 22.0274 -9.34051 25.2861 -5.4395 27.9651L-5.27499 28.0748C-4.57782 28.5291 -2.73698 29.7276 -2.93281 32.4301Z" fill="#6ACBE0"/>
<path d="M115.695 265.833C113.533 267.149 111.042 267.705 107.862 267.611H107.541C103.891 267.932 100.381 266.467 96.5272 263.029C89.3597 256.629 85.4273 256.691 78.2598 263.311C73.0193 268.144 64.6141 269.186 59.1229 265.692C58.4257 265.245 56.2402 263.655 57.3291 261.791C57.6267 261.274 58.0419 260.569 59.0916 260.569C59.5616 260.569 60.1647 260.71 60.9402 261.07C66.5724 263.71 71.6093 262.747 76.3485 258.125C82.9285 251.709 92.1797 251.78 98.8537 258.289C103.538 262.856 108.465 263.82 113.909 261.227C116.651 259.919 117.333 261.203 117.74 261.971C118.688 263.757 116.628 265.269 115.695 265.833Z" fill="#6ACBE0"/>
<path d="M125.213 181.162C123.255 182.384 121.21 183.089 116.542 183.026H116.456H116.369C112.876 183.206 109.421 181.616 105.505 178.036C99.1203 172.193 94.4595 172.201 88.326 178.083C83.6416 182.564 78.2209 184.005 71.7506 182.494C70.4111 182.18 69.1264 181.569 67.8261 180.621C66.0636 179.345 66.2829 178.193 66.7842 177.136C67.0741 176.532 67.4344 176.149 67.8496 176C68.0219 175.937 68.2021 175.914 68.3979 175.914C68.8131 175.914 69.2831 176.031 69.7844 176.274C75.7848 179.164 81.0018 178.17 86.211 173.141C92.3288 167.234 101.627 167.313 107.847 173.321C111.058 176.423 116.181 180.136 123.537 176.54C125.997 175.334 126.741 176.65 127.101 177.277C128.151 179.125 125.926 180.715 125.213 181.162Z" fill="#6ACBE0"/>
<path d="M40.4561 223.572C38.1766 224.872 35.6778 225.42 32.5757 225.311H32.4112L32.2467 225.319C28.7844 225.616 25.4552 224.269 21.7579 221.12C13.6738 214.211 11.0027 214.234 2.73064 221.253C-2.54905 225.734 -10.2727 226.744 -15.6386 223.65C-17.8398 222.389 -18.5996 220.979 -17.8946 219.467C-17.7301 219.122 -17.3933 218.386 -16.1556 218.386C-15.5681 218.386 -14.7691 218.558 -13.6803 219.021C-8.29873 221.324 -3.60656 220.415 0.670458 216.255C7.74398 209.386 16.8072 209.315 23.771 216.083C28.3222 220.509 33.1162 221.472 38.4351 219.036C39.7041 218.449 40.9104 218.292 41.6624 218.605C42.0384 218.754 42.2891 219.028 42.4458 219.451C42.9236 220.752 43.1351 222.052 40.4561 223.572Z" fill="#6ACBE0"/>
</svg>
