<svg width="156" height="190" viewBox="0 0 156 190" fill="none" xmlns="http://www.w3.org/2000/svg">
<g opacity="0.6">
<path d="M105.241 33.1586C89.2333 29.5319 79.1482 19.4646 75.2624 3.23368C74.5746 0.321582 73.4401 0 72.127 0H71.9751C70.7335 0.0178657 69.6615 0.267985 69.0005 3.14435C65.3023 19.3306 55.2439 29.4158 39.0934 33.1319C36.0384 33.8375 35.815 34.9988 35.8508 36.3387C35.8776 37.6161 36.1366 38.7149 38.9773 39.3938C55.4047 43.3063 65.5346 53.5255 69.0898 69.7564C69.5275 71.7127 70.403 72.5971 72.1984 72.8204C73.6009 72.606 74.5924 71.9361 75.1284 69.6225C78.907 53.329 89.0726 43.1277 105.339 39.3134C108.537 38.563 108.564 37.241 108.582 36.3745C108.591 35.4544 108.627 33.9269 105.241 33.1586ZM90.6269 36.9819L90.5286 38.3486L88.9743 39.5903C88.5277 39.9476 88.0274 40.3496 87.5182 40.7337C82.9446 44.1996 79.3804 47.7817 76.6381 51.6853C76.0038 52.5965 74.512 54.7225 72.0555 54.7225H72.0019C69.5365 54.6957 68.0983 52.5429 67.6338 51.8372C64.7395 47.5137 61.1575 43.8691 56.9769 41.0017C56.2266 40.4836 53.9308 38.9025 53.9397 36.2673C53.9576 33.6321 56.298 32.0688 57.0662 31.5597C61.1307 28.8352 64.6323 25.3335 67.473 21.1351C68.0447 20.2954 69.5543 18.0711 72.127 18.0532H72.1538C73.8332 18.0532 75.3339 19.0001 76.6113 20.8492C79.568 25.1191 83.3198 28.8352 87.7684 31.8902L87.956 32.0153C88.751 32.5334 90.8502 33.9001 90.6269 36.9819Z" fill="#F7A54B"/>
<path d="M7.56918 94.6163C-7.65235 90.9538 -17.3802 81.2885 -21.3285 65.8883C-22.2933 62.0919 -23.0793 61.6631 -24.7319 61.6631H-24.8123C-26.2237 61.672 -27.1438 61.8685 -28.0549 65.6203C-31.8335 81.1724 -41.6418 90.936 -57.2117 94.652C-60.7669 95.5006 -61.0171 96.4654 -60.9992 97.9482C-60.9813 99.3686 -60.6865 100.521 -57.2027 101.209C-49.6277 102.709 -43.1067 106.434 -37.2825 112.598C-32.2623 117.904 -29.0554 124.238 -27.7333 131.42C-27.1884 134.385 -25.4823 134.394 -24.7498 134.403C-23.8476 134.43 -22.4898 134.421 -21.7305 131.33L-21.5429 130.562C-21.1409 128.865 -20.7121 127.114 -20.0422 125.372C-14.9951 112.393 -5.571 104.228 7.98903 101.11C10.7582 100.476 11.5354 99.5204 11.8033 98.0197C11.6068 96.3582 10.8207 95.3934 7.56918 94.6163ZM-8.67069 101.977C-13.3336 105.255 -17.2998 109.204 -20.4978 113.759C-20.9623 114.42 -22.3737 116.43 -24.7766 116.43H-24.8123C-26.4113 116.412 -27.8048 115.528 -28.9661 113.804C-32.0211 109.284 -35.8265 105.425 -40.275 102.325C-42.0705 101.075 -42.9727 99.5919 -42.9638 97.9214C-42.946 95.3845 -40.811 93.9374 -40.1053 93.4639C-35.8354 90.5697 -32.1104 86.8358 -29.0554 82.3783C-28.582 81.6994 -27.1706 79.6359 -24.7319 79.6091C-23.7046 79.5734 -22.1414 79.9754 -20.8193 81.8245C-17.2909 86.7375 -13.0924 90.8734 -8.34018 94.1071C-7.61662 94.5984 -7.19678 95.2148 -6.94666 95.581L-6.87519 95.6882L-6.2231 96.4832L-6.1963 97.4837C-6.07124 100.164 -7.95607 101.486 -8.67069 101.977Z" fill="#F7A54B"/>
<path d="M136.229 187.196C133.933 188.492 131.333 189.019 127.251 189.019H127.01C122.919 189.349 118.899 187.58 114.379 183.453C106.947 176.673 101.935 176.682 94.5034 183.471C87.9645 189.447 78.853 190.886 72.3499 186.973C71.0725 186.205 70.1793 185.285 69.822 184.365C69.554 183.677 69.6165 183.034 70.0274 182.364C70.4204 181.703 70.8492 180.988 72.0105 180.988C72.6358 180.988 73.4665 181.193 74.6099 181.721C80.7647 184.543 86.2584 183.48 91.3947 178.469C99.336 170.742 109.662 170.814 117.711 178.657C122.561 183.391 127.912 184.436 134.058 181.872C137.747 180.327 138.355 181.497 138.935 182.623C140.043 184.749 137.417 186.535 136.229 187.196Z" fill="#F7A54B"/>
<path d="M40.6746 186.955C38.2091 188.456 35.3685 189.09 31.7418 188.983H31.3755C27.2128 189.349 23.2109 187.679 18.816 183.757C10.6424 176.459 6.15815 176.531 -2.01538 184.079C-7.99144 189.59 -17.5764 190.778 -23.8383 186.794C-24.6333 186.285 -27.1256 184.472 -25.8839 182.346C-25.5444 181.756 -25.071 180.952 -23.874 180.952C-23.338 180.952 -22.6502 181.113 -21.7659 181.524C-15.3432 184.534 -9.59935 183.436 -4.19499 178.165C3.30858 170.849 13.8583 170.93 21.469 178.353C26.8109 183.561 32.4296 184.659 38.6379 181.703C41.7644 180.211 42.5416 181.676 43.0061 182.551C44.0869 184.588 41.7376 186.312 40.6746 186.955Z" fill="#F7A54B"/>
<path d="M92.7263 146.864C92.6727 146.855 92.6101 146.838 92.5565 146.829C91.029 146.471 89.564 145.775 88.0812 144.694C87.7239 144.435 87.438 144.185 87.2236 143.943C89.1085 145.346 90.9308 146.319 92.7263 146.864Z" fill="#F7A54B"/>
<path d="M100.284 147.347C99.1136 147.49 97.9077 147.525 96.666 147.445C96.9429 147.436 97.2199 147.418 97.5057 147.4L97.6933 147.382H97.8809C98.7206 147.418 99.5156 147.409 100.284 147.347Z" fill="#F7A54B"/>
<path d="M153.522 145.311C151.289 146.704 148.958 147.508 143.634 147.437H143.535H143.437C139.453 147.642 135.514 145.829 131.047 141.746C123.767 135.082 118.452 135.091 111.458 141.8C110.529 142.693 109.573 143.47 108.59 144.149V144.158C106.027 145.936 103.266 146.999 100.292 147.347C99.5234 147.41 98.7284 147.419 97.8887 147.392H97.7011L97.5135 147.401C97.2277 147.419 96.9508 147.437 96.6739 147.445H96.6292C95.325 147.463 94.0387 147.276 92.7345 146.865C90.939 146.32 89.1167 145.346 87.2319 143.944C86.678 143.542 86.1153 143.095 85.5525 142.613C76.3338 134.734 73.2877 134.761 63.8547 142.765C57.8339 147.874 49.0262 149.027 42.9072 145.498C40.397 144.06 39.5306 142.452 40.3345 140.728C40.5221 140.335 40.9062 139.495 42.3176 139.495C42.9876 139.495 43.8987 139.692 45.1404 140.219C51.2772 142.845 56.628 141.809 61.5053 137.066C69.5717 129.231 79.9069 129.151 87.8482 136.869C90.3137 139.263 92.8417 140.773 95.459 141.389C100.238 142.139 104.651 140.415 109.055 136.163C116.031 129.428 126.635 129.517 133.727 136.369C137.39 139.906 143.232 144.14 151.62 140.04C154.425 138.664 155.273 140.165 155.684 140.88C156.881 142.988 154.344 144.801 153.531 145.311H153.522Z" fill="#F7A54B"/>
<path d="M108.581 144.158C108.179 144.56 107.625 144.98 106.866 145.409C104.883 146.543 102.757 147.177 100.282 147.347C103.257 146.999 106.017 145.936 108.581 144.158Z" fill="#F7A54B"/>
</g>
</svg>
