<svg width="184" height="296" viewBox="0 0 184 296" fill="none" xmlns="http://www.w3.org/2000/svg">
<g opacity="0.6">
<path d="M295.576 278.758C293.602 265.582 291.62 252.414 289.638 239.246L286.043 215.308C284.86 207.459 283.685 199.602 282.51 191.753C280.598 178.969 278.679 166.185 276.752 153.401L276.69 152.985C274.3 137.154 271.825 120.775 269.31 104.693C268.198 97.5957 263.945 93.9846 256.667 93.9454C252.21 93.9297 247.761 93.9297 243.304 93.9376H237.491C232.329 93.9376 229.486 93.9376 227.527 91.9792C225.577 90.0366 225.538 87.3419 225.459 81.9682C225.318 72.2705 218.746 65.7531 209.103 65.7531H209.088C199.57 65.761 192.865 72.4507 192.786 82.023C192.724 89.0652 192.724 96.7654 192.786 106.259C192.794 107.466 192.802 109.706 191.235 111.265C190.209 112.299 188.776 112.769 186.919 112.769C176.509 112.675 165.91 112.706 156.024 112.753H155.97C154.129 112.753 152.75 112.26 151.74 111.249C150.721 110.231 150.236 108.829 150.251 106.957C150.275 103.839 150.267 100.721 150.259 97.6036C150.251 92.8331 150.236 87.898 150.345 83.0335C150.463 78.0593 152.554 74.2993 156.393 72.1608C159.863 70.2338 163.482 69.9596 166.599 71.3853C170.203 73.0303 172.772 76.759 173.837 81.882C174.323 84.1929 175.083 84.3809 176.587 84.2555C177.55 84.1694 178.459 84.091 178.443 81.5765C178.412 74.832 175.334 70.0145 169.294 67.265C162.871 64.3431 156.902 65.0481 151.544 69.3643C147.267 72.811 145.465 77.5188 145.708 84.6237L145.747 85.7987C145.865 89.0417 145.943 91.0001 144.494 92.4962C143.052 93.9767 141.18 93.9611 138.086 93.9376H136.449C125.592 93.9532 115.847 93.9532 106.674 93.9376C103.878 93.9532 103.721 94.6817 103.541 95.6374C103.431 96.2562 103.376 97.0944 103.792 97.5879C104.215 98.1049 105.217 98.4026 106.541 98.4104H107.881C117.954 98.4888 128.365 98.5514 138.587 98.3713C140.326 98.3399 142.535 98.5044 144.11 100.079C145.692 101.653 145.865 103.855 145.833 105.601C145.684 115.894 145.724 126.376 145.763 136.512L145.786 141.964C145.794 145.34 146.648 145.364 147.94 145.387C148.497 145.395 149.217 145.348 149.546 145.027C149.75 144.823 150.236 144.11 150.251 141.815L150.267 139.778C150.314 134.561 150.361 129.172 150.22 123.9C150.181 122.451 150.306 120.344 151.802 118.832C153.298 117.32 155.359 117.171 156.792 117.195C167.602 117.344 177.174 117.344 186.065 117.179C187.546 117.156 189.669 117.297 191.196 118.832C192.716 120.359 192.857 122.467 192.818 124.127C192.7 128.545 192.732 133.065 192.763 137.436C192.763 139.238 192.786 141.047 192.786 142.849C192.786 144.651 193.358 144.972 193.773 145.152C195.121 145.724 195.959 145.356 196.476 145.027C197.157 144.588 197.267 143.907 197.267 141.784C197.267 138.361 197.267 134.977 197.283 131.585C197.298 122.992 197.322 114.101 197.204 105.366C197.181 103.847 197.338 101.646 198.881 100.087C200.416 98.5514 202.586 98.3791 204.254 98.3791C215.307 98.4809 226.548 98.4653 237.421 98.4496C241.369 98.4496 245.317 98.4417 249.265 98.4417C262.417 98.4417 263.639 99.4836 265.543 112.33L265.566 112.503C270.501 145.794 275.922 182.188 282.627 227.05C284.515 239.709 286.434 252.375 288.361 265.034L290.868 281.586C291.314 284.547 290.86 286.818 289.474 288.518C288.071 290.234 285.925 291.15 282.894 291.315C282.063 291.362 281.249 291.354 280.473 291.346C280.183 291.346 279.901 291.338 279.611 291.338H16.4574C16.1441 291.338 15.8386 291.346 15.5252 291.346C14.6244 291.362 13.6922 291.37 12.7209 291.299C9.94006 291.088 7.86422 290.14 6.54038 288.487C5.20087 286.803 4.73087 284.5 5.15387 281.633C5.90588 276.533 6.65005 271.426 7.39422 266.319C8.78855 256.746 10.2377 246.845 11.7026 237.116C15.3451 212.965 19.0111 188.815 22.6771 164.665L26.5938 138.862C27.2753 134.366 25.7008 134.123 24.9488 133.997C24.7373 133.966 24.5571 133.95 24.3926 133.95C23.6798 133.95 23.3351 134.201 23.2019 134.303C22.4421 134.851 21.8781 136.128 21.6039 137.898C20.5934 144.51 19.6064 151.129 18.6194 157.748L14.3267 186.434C11.7104 203.91 9.08622 221.394 6.46205 238.87C5.94504 242.341 5.42804 245.803 4.91104 249.273C3.43053 259.182 1.90303 269.436 0.32069 279.51C-0.51748 284.821 0.289357 288.933 2.7177 291.746C5.16171 294.581 9.29772 296.038 14.6322 295.999C46.9449 295.717 79.8058 295.764 111.578 295.803C123.649 295.827 135.728 295.842 147.799 295.842H230.371C247.972 295.85 266.177 295.85 284.076 295.819C290.179 295.811 294.636 292.49 295.701 287.163C296.273 284.327 295.96 281.319 295.576 278.758ZM220.947 87.0834C220.932 87.7492 220.908 88.4229 220.908 89.0965C220.908 90.8356 220.187 91.9166 219.584 92.5119C218.143 93.9454 216.122 93.9297 215.472 93.9297C214.171 93.9219 212.871 93.9219 211.571 93.9219L208.704 93.9532C208.273 93.9924 207.474 94.0629 206.62 93.7104C206.416 93.6712 205.633 93.8122 205.116 93.9062C204.427 94.0237 203.628 94.1647 202.782 94.1647C201.74 94.1647 200.643 93.9532 199.625 93.2091C198.403 92.3161 197.643 90.8669 197.369 88.9007C196.029 79.109 199.554 72.4898 207.035 70.7508C212.448 69.4896 218.072 72.9833 220.125 78.8818C221.12 81.7332 221.026 84.5767 220.947 87.0834Z" fill="#6ACBE0"/>
<path d="M83.8642 92.5198C64.2338 87.7807 51.7945 75.3099 46.8986 55.4602C46.0448 52.0057 45.4886 51.7002 44.0081 51.7002H43.9846C42.7156 51.7002 41.8931 51.9352 41.1333 55.1312C36.3706 75.2786 23.7745 87.9138 3.67412 92.6765C0.305773 93.4755 0.0864396 94.3685 0.141273 95.7394C0.188273 97.0005 0.36844 97.6977 3.73679 98.4262C13.411 100.518 21.7379 105.053 28.4745 111.915C34.8352 118.401 39.0104 126.164 40.8904 135.008C41.6111 138.376 42.2613 139.395 44.0551 139.708C45.4651 139.442 46.2954 138.674 46.8516 135.878C50.4706 117.493 65.6752 102.116 83.8251 98.4967C87.8044 97.6977 88.0159 96.8674 88.0394 95.5827C88.0629 94.1883 87.6634 93.4363 83.8642 92.5198ZM70.0384 97.964C59.5182 103.769 52.0138 111.265 46.4286 121.558L44.0081 126.015L41.6033 121.558C35.9711 111.116 28.4745 103.635 18.0248 98.011L13.5755 95.614L18.0092 93.1935C28.4275 87.4908 36.1199 79.7828 41.5093 69.6308L43.8671 65.1971L46.3268 69.5759C52.3428 80.2998 59.8628 87.7885 69.9914 93.1387L74.4799 95.5122L70.0384 97.964Z" fill="#6ACBE0"/>
<path d="M140.882 29.0774C126.844 25.8971 118 17.0689 114.593 2.83568C113.99 0.282001 112.995 0 111.843 0H111.71C110.621 0.0156667 109.681 0.235001 109.102 2.75734C105.859 16.9514 97.0383 25.7953 82.8755 29.0539C80.1965 29.6728 80.0007 30.6911 80.032 31.8661C80.0555 32.9863 80.2827 33.9498 82.7737 34.5451C97.1793 37.9761 106.062 46.9375 109.18 61.1707C109.564 62.8862 110.331 63.6617 111.906 63.8576C113.136 63.6696 114.005 63.0821 114.475 61.0532C117.789 46.7652 126.703 37.8195 140.968 34.4746C143.772 33.8166 143.796 32.6573 143.811 31.8974C143.819 31.0906 143.85 29.7511 140.882 29.0774ZM128.066 32.4301L127.98 33.6286L126.617 34.7175C126.225 35.0308 125.787 35.3833 125.34 35.7201C121.33 38.7595 118.204 41.9007 115.799 45.3238C115.243 46.1228 113.935 47.9872 111.781 47.9872H111.734C109.572 47.9637 108.31 46.0758 107.903 45.457C105.365 41.6656 102.224 38.4696 98.5579 35.9551C97.8999 35.5008 95.8868 34.1143 95.8946 31.8034C95.9103 29.4926 97.9626 28.1218 98.6363 27.6753C102.2 25.2861 105.271 22.2154 107.762 18.5337C108.263 17.7974 109.587 15.8469 111.843 15.8312H111.867C113.339 15.8312 114.655 16.6616 115.776 18.2831C118.369 22.0274 121.659 25.2861 125.56 27.9651L125.724 28.0748C126.421 28.5291 128.262 29.7276 128.066 32.4301Z" fill="#6ACBE0"/>
<path d="M121.362 160.506C108.014 157.294 99.4834 148.818 96.0211 135.314C95.1751 131.984 94.4857 131.608 93.0366 131.608H92.9661C91.7284 131.616 90.9216 131.789 90.1226 135.079C86.8091 148.716 78.208 157.278 64.5545 160.537C61.4368 161.281 61.2175 162.127 61.2331 163.428C61.2488 164.673 61.5073 165.684 64.5623 166.287C71.205 167.603 76.9234 170.869 82.0307 176.274C86.4331 180.927 89.2452 186.481 90.4046 192.779C90.8824 195.38 92.3786 195.388 93.0209 195.395C93.8121 195.419 95.0027 195.411 95.6686 192.701L95.8331 192.027C96.1856 190.539 96.5616 189.003 97.1491 187.476C101.575 176.094 109.839 168.934 121.73 166.201C124.159 165.644 124.84 164.806 125.075 163.49C124.903 162.033 124.213 161.187 121.362 160.506ZM107.121 166.96C103.032 169.835 99.5539 173.298 96.7496 177.293C96.3423 177.872 95.1046 179.635 92.9974 179.635H92.9661C91.5639 179.619 90.3419 178.844 89.3236 177.332C86.6446 173.368 83.3075 169.984 79.4065 167.266C77.832 166.169 77.0409 164.869 77.0487 163.404C77.0644 161.179 78.9365 159.91 79.5554 159.495C83.2997 156.957 86.5662 153.683 89.2452 149.774C89.6604 149.179 90.8981 147.369 93.0366 147.346C93.9374 147.314 95.3083 147.667 96.4676 149.288C99.5618 153.597 103.243 157.223 107.411 160.059C108.045 160.49 108.413 161.031 108.633 161.352L108.695 161.446L109.267 162.143L109.291 163.02C109.4 165.37 107.748 166.53 107.121 166.96Z" fill="#6ACBE0"/>
<path d="M95.9825 266.029C93.9693 267.165 91.6898 267.627 88.11 267.627H87.8985C84.3108 267.917 80.7858 266.366 76.8221 262.747C70.3048 256.801 65.9102 256.809 59.3929 262.762C53.6589 268.003 45.6688 269.264 39.9661 265.833C38.846 265.159 38.0626 264.352 37.7493 263.546C37.5143 262.942 37.5691 262.378 37.9295 261.791C38.2741 261.211 38.6501 260.585 39.6685 260.585C40.2168 260.585 40.9453 260.765 41.948 261.227C47.3452 263.702 52.1627 262.77 56.6669 258.376C63.6307 251.6 72.6861 251.662 79.744 258.54C83.9975 262.692 88.6896 263.608 94.079 261.36C97.3142 260.005 97.8468 261.031 98.356 262.018C99.3274 263.882 97.0243 265.449 95.9825 266.029Z" fill="#6ACBE0"/>
<path d="M171.457 223.572C169.178 224.872 166.679 225.42 163.577 225.311H163.412L163.248 225.319C159.785 225.616 156.456 224.269 152.759 221.12C144.675 214.211 142.004 214.234 133.732 221.253C128.452 225.734 120.728 226.744 115.362 223.65C113.161 222.389 112.401 220.979 113.106 219.467C113.271 219.122 113.608 218.386 114.845 218.386C115.433 218.386 116.232 218.558 117.321 219.021C122.702 221.324 127.394 220.415 131.671 216.255C138.745 209.386 147.808 209.315 154.772 216.083C159.323 220.509 164.117 221.472 169.436 219.036C170.705 218.449 171.911 218.292 172.663 218.605C173.039 218.754 173.29 219.028 173.447 219.451C173.925 220.752 174.136 222.052 171.457 223.572Z" fill="#6ACBE0"/>
</g>
</svg>
