<svg width="28" height="28" viewBox="0 0 28 28" fill="none" xmlns="http://www.w3.org/2000/svg">
<path fill-rule="evenodd" clip-rule="evenodd" d="M20.2222 0H7.77778C3.48224 0 0 3.48224 0 7.77778V20.2222C0 24.5177 3.48224 28 7.77778 28H20.2222C24.5177 28 28 24.5177 28 20.2222V7.77778C28 3.48224 24.5177 0 20.2222 0ZM25.2778 20.2222C25.2692 23.0107 23.0107 25.2692 20.2222 25.2778H7.77778C4.98921 25.2692 2.73076 23.0107 2.72222 20.2222V7.77778C2.73076 4.98921 4.98921 2.73076 7.77778 2.72222H20.2222C23.0107 2.73076 25.2692 4.98921 25.2778 7.77778V20.2222ZM21.3889 8.16667C22.248 8.16667 22.9444 7.47021 22.9444 6.61111C22.9444 5.75201 22.248 5.05556 21.3889 5.05556C20.5298 5.05556 19.8333 5.75201 19.8333 6.61111C19.8333 7.47021 20.5298 8.16667 21.3889 8.16667ZM14 7C10.134 7 7 10.134 7 14C7 17.866 10.134 21 14 21C17.866 21 21 17.866 21 14C21.0042 12.1422 20.268 10.3593 18.9543 9.04568C17.6406 7.73203 15.8578 6.99586 14 7ZM9.72222 14C9.72222 16.3626 11.6374 18.2778 14 18.2778C16.3626 18.2778 18.2778 16.3626 18.2778 14C18.2778 11.6374 16.3626 9.72222 14 9.72222C11.6374 9.72222 9.72222 11.6374 9.72222 14Z" fill="#F7A54B"/>
</svg>
