<svg width="39" height="39" viewBox="0 0 39 39" fill="none" xmlns="http://www.w3.org/2000/svg">
<path d="M19.5 26.5H19.5175M19.5 12.5V19.5M25.296 2C26.2242 2.0002 27.1143 2.36908 27.7705 3.0255L35.9745 11.2295C36.6309 11.8857 36.9998 12.7758 37 13.704V25.296C36.9998 26.2242 36.6309 27.1143 35.9745 27.7705L27.7705 35.9745C27.1143 36.6309 26.2242 36.9998 25.296 37H13.704C12.7758 36.9998 11.8857 36.6309 11.2295 35.9745L3.0255 27.7705C2.36908 27.1143 2.0002 26.2242 2 25.296V13.704C2.0002 12.7758 2.36908 11.8857 3.0255 11.2295L11.2295 3.0255C11.8857 2.36908 12.7758 2.0002 13.704 2H25.296Z" stroke="#F7A54B" stroke-width="3" stroke-linecap="round" stroke-linejoin="round"/>
</svg>
