<svg width="221" height="165" viewBox="0 0 221 165" fill="none" xmlns="http://www.w3.org/2000/svg">
<path opacity="0.3" d="M12.5041 71.0763C17.8771 42.5154 28.6443 23.3331 44.8058 13.5292C59.2025 4.79585 77.4026 1.63715 99.4061 4.05304C104.207 4.58015 107.73 8.70117 107.813 13.5301L107.968 22.4642C108.07 28.3795 103.03 33.0022 97.118 33.2149C76.4633 33.9578 63.8708 42.6872 59.3407 59.4029C57.9877 64.3953 61.6437 69.1193 66.7271 70.0756L74.715 71.5783C80.1426 72.5994 83.7148 77.8271 82.6938 83.2547L73.3659 132.838C72.3449 138.266 67.1172 141.838 61.6895 140.817L11.3415 131.345C5.91384 130.324 2.3416 125.096 3.36267 119.669L12.5041 71.0763ZM122.262 91.7245C127.635 63.1636 138.403 43.9812 154.564 34.1773C168.961 25.444 187.161 22.2853 209.164 24.7012C213.965 25.2283 217.488 29.3493 217.572 34.1782L217.726 43.1123C217.828 49.0276 212.789 53.6503 206.876 53.863C186.221 54.606 173.629 63.3353 169.099 80.0511C167.746 85.0435 171.402 89.7674 176.485 90.7237L184.473 92.2264C189.901 93.2475 193.473 98.4752 192.452 103.903L183.124 153.486C182.103 158.914 176.875 162.486 171.448 161.465L121.1 151.993C115.672 150.972 112.1 145.745 113.121 140.317L122.262 91.7245Z" stroke="#6ACBE0" stroke-width="5"/>
</svg>
